<svg width="600" height="214" viewBox="0 0 600 214" fill="none" xmlns="http://www.w3.org/2000/svg">
<path d="M8.5 184V111H19.3V141.2H40.7V111H51.5V184H40.7V151.2H19.3V184H8.5ZM89.9609 184.9C85.4276 184.9 81.4943 184.033 78.1609 182.3C74.8276 180.567 72.2609 178.1 70.4609 174.9C68.6609 171.7 67.7609 167.933 67.7609 163.6V149.4C67.7609 145 68.6609 141.233 70.4609 138.1C72.2609 134.9 74.8276 132.433 78.1609 130.7C81.4943 128.967 85.4276 128.1 89.9609 128.1C94.4943 128.1 98.4276 128.967 101.761 130.7C105.094 132.433 107.661 134.9 109.461 138.1C111.261 141.233 112.161 145 112.161 149.4V163.6C112.161 167.933 111.261 171.7 109.461 174.9C107.661 178.1 105.094 180.567 101.761 182.3C98.4276 184.033 94.4943 184.9 89.9609 184.9ZM89.9609 175.4C93.6276 175.4 96.4609 174.4 98.4609 172.4C100.461 170.333 101.461 167.4 101.461 163.6V149.4C101.461 145.533 100.461 142.6 98.4609 140.6C96.4609 138.6 93.6276 137.6 89.9609 137.6C86.3609 137.6 83.5276 138.6 81.4609 140.6C79.4609 142.6 78.4609 145.533 78.4609 149.4V163.6C78.4609 167.4 79.4609 170.333 81.4609 172.4C83.5276 174.4 86.3609 175.4 89.9609 175.4ZM130.122 184V129H140.522V139.5H143.122L139.822 146C139.822 140.067 141.122 135.6 143.722 132.6C146.322 129.533 150.189 128 155.322 128C161.189 128 165.822 129.833 169.222 133.5C172.689 137.1 174.422 142.067 174.422 148.4V152.1H163.322V149.3C163.322 145.367 162.322 142.367 160.322 140.3C158.389 138.167 155.655 137.1 152.122 137.1C148.589 137.1 145.822 138.167 143.822 140.3C141.889 142.433 140.922 145.433 140.922 149.3V184H130.122ZM187.983 184V174.2H207.283V138.8H190.483V129H217.783V174.2H235.483V184H187.983ZM211.483 119.5C209.149 119.5 207.283 118.9 205.883 117.7C204.483 116.433 203.783 114.767 203.783 112.7C203.783 110.567 204.483 108.9 205.883 107.7C207.283 106.433 209.149 105.8 211.483 105.8C213.816 105.8 215.683 106.433 217.083 107.7C218.483 108.9 219.183 110.567 219.183 112.7C219.183 114.767 218.483 116.433 217.083 117.7C215.683 118.9 213.816 119.5 211.483 119.5ZM248.244 184V173.8L277.944 138.6H249.144V129H290.344V139.2L260.244 174.4H291.444V184H248.244ZM329.805 184.9C325.271 184.9 321.338 184.033 318.005 182.3C314.671 180.567 312.105 178.1 310.305 174.9C308.505 171.7 307.605 167.933 307.605 163.6V149.4C307.605 145 308.505 141.233 310.305 138.1C312.105 134.9 314.671 132.433 318.005 130.7C321.338 128.967 325.271 128.1 329.805 128.1C334.338 128.1 338.271 128.967 341.605 130.7C344.938 132.433 347.505 134.9 349.305 138.1C351.105 141.233 352.005 145 352.005 149.4V163.6C352.005 167.933 351.105 171.7 349.305 174.9C347.505 178.1 344.938 180.567 341.605 182.3C338.271 184.033 334.338 184.9 329.805 184.9ZM329.805 175.4C333.471 175.4 336.305 174.4 338.305 172.4C340.305 170.333 341.305 167.4 341.305 163.6V149.4C341.305 145.533 340.305 142.6 338.305 140.6C336.305 138.6 333.471 137.6 329.805 137.6C326.205 137.6 323.371 138.6 321.305 140.6C319.305 142.6 318.305 145.533 318.305 149.4V163.6C318.305 167.4 319.305 170.333 321.305 172.4C323.371 174.4 326.205 175.4 329.805 175.4ZM368.166 184V129H378.866V139.5H381.466L378.866 142C378.866 137.6 380.166 134.167 382.766 131.7C385.366 129.233 388.966 128 393.566 128C399.032 128 403.399 129.767 406.666 133.3C409.932 136.767 411.566 141.467 411.566 147.4V184H400.766V148.6C400.766 145 399.799 142.233 397.866 140.3C395.932 138.367 393.299 137.4 389.966 137.4C386.566 137.4 383.866 138.433 381.866 140.5C379.932 142.5 378.966 145.433 378.966 149.3V184H368.166ZM455.727 184C450.727 184 446.827 182.633 444.027 179.9C441.227 177.167 439.827 173.367 439.827 168.5V138.8H424.627V129H439.827V113.5H450.627V129H472.127V138.8H450.627V168.5C450.627 172.3 452.46 174.2 456.127 174.2H471.127V184H455.727ZM509.688 185C505.221 185 501.288 184.133 497.888 182.4C494.554 180.6 491.988 178.1 490.188 174.9C488.388 171.7 487.488 167.967 487.488 163.7V149.3C487.488 144.967 488.388 141.233 490.188 138.1C491.988 134.9 494.554 132.433 497.888 130.7C501.288 128.9 505.221 128 509.688 128C514.221 128 518.154 128.9 521.488 130.7C524.821 132.433 527.388 134.9 529.188 138.1C530.988 141.233 531.888 144.967 531.888 149.3V159.1H497.888V163.7C497.888 167.767 498.888 170.867 500.888 173C502.954 175.133 505.921 176.2 509.788 176.2C512.921 176.2 515.454 175.667 517.388 174.6C519.321 173.467 520.521 171.833 520.988 169.7H531.688C530.888 174.367 528.488 178.1 524.488 180.9C520.488 183.633 515.554 185 509.688 185ZM521.488 152.6V149.2C521.488 145.2 520.488 142.1 518.488 139.9C516.488 137.7 513.554 136.6 509.688 136.6C505.888 136.6 502.954 137.7 500.888 139.9C498.888 142.1 497.888 145.233 497.888 149.3V151.8L522.288 151.7L521.488 152.6ZM567.748 184.9C563.815 184.9 560.348 184.267 557.348 183C554.415 181.733 552.082 180 550.348 177.8C548.682 175.533 547.715 172.867 547.448 169.8H558.248C558.515 171.6 559.482 173.067 561.148 174.2C562.815 175.267 565.015 175.8 567.748 175.8H572.048C575.315 175.8 577.782 175.133 579.448 173.8C581.115 172.467 581.948 170.7 581.948 168.5C581.948 166.367 581.182 164.7 579.648 163.5C578.182 162.233 575.982 161.4 573.048 161L565.948 159.9C560.082 158.967 555.748 157.3 552.948 154.9C550.215 152.433 548.848 148.8 548.848 144C548.848 138.933 550.482 135.033 553.748 132.3C557.082 129.5 561.982 128.1 568.448 128.1H572.248C577.982 128.1 582.548 129.433 585.948 132.1C589.415 134.7 591.382 138.2 591.848 142.6H581.048C580.782 141 579.882 139.7 578.348 138.7C576.882 137.7 574.848 137.2 572.248 137.2H568.448C565.315 137.2 563.015 137.8 561.548 139C560.148 140.133 559.448 141.833 559.448 144.1C559.448 146.1 560.082 147.6 561.348 148.6C562.615 149.6 564.582 150.3 567.248 150.7L574.548 151.9C580.748 152.767 585.282 154.5 588.148 157.1C591.082 159.633 592.548 163.333 592.548 168.2C592.548 173.467 590.815 177.567 587.348 180.5C583.948 183.433 578.848 184.9 572.048 184.9H567.748Z" fill="black"/>
<path d="M318 37C318 57.4345 301.435 74 281 74C260.565 74 244 57.4345 244 37C244 16.5655 260.565 0 281 0C301.435 0 318 16.5655 318 37Z" fill="black"/>
<rect x="222" y="41.5" width="118" height="43" fill="white"/>
<rect x="201" y="48.5" width="160" height="6" fill="black"/>
<rect x="212" y="62.5" width="138" height="6" fill="black"/>
<rect x="233" y="75.5" width="96" height="6" fill="black"/>
</svg>
