<svg width="1342" height="1509" viewBox="0 0 1342 1509" fill="none" xmlns="http://www.w3.org/2000/svg">
<g opacity="0.2">
<path d="M539.029 728.621L539.029 728.621C540.303 710.997 530.011 697.368 515.024 686.668C500.044 675.973 479.902 667.84 460.32 661.183C450.959 658.001 441.671 655.138 433.085 652.492L431.845 652.109C422.894 649.35 414.781 646.833 408.121 644.411C401.391 641.964 396.435 639.713 393.616 637.568C392.204 636.493 391.614 635.655 391.424 635.102C391.295 634.728 391.267 634.286 391.787 633.532C393.236 631.427 396.858 628.545 402.664 625.214C408.36 621.946 415.833 618.425 424.596 614.939C442.118 607.967 464.628 601.2 488.04 596.886C511.47 592.568 535.668 590.733 556.615 593.531C577.595 596.333 594.937 603.725 605.218 617.496C624.393 643.189 634.025 686.644 632.592 730.026C631.159 773.424 618.683 815.897 594.569 839.835C566.518 867.68 527.307 878.868 493.678 879.69C476.877 880.101 461.602 877.918 449.952 874.022C444.127 872.074 439.278 869.721 435.611 867.105C431.93 864.479 429.574 861.687 428.485 858.899L428.485 858.899C427.501 856.381 427.856 853.699 429.744 850.51C431.674 847.248 435.078 843.706 439.73 839.795C445.903 834.606 453.852 829.098 462.667 822.99C467.189 819.857 471.939 816.566 476.793 813.079C504.997 792.82 536.302 766.251 539.029 728.621Z" stroke="url(#paint0_linear_1204_167)" stroke-width="5"/>
<path d="M377.452 622.411L377.453 622.41C382.918 617.948 397.512 609.857 417.431 601.219C437.257 592.62 462.102 583.588 487.897 577.174C513.714 570.755 540.35 566.993 563.805 568.833C587.268 570.675 607.23 578.089 620.191 593.698C643.606 621.91 657.418 672.555 657.713 722.294C658.008 772.114 644.747 819.873 615.306 842.923C580.053 870.473 538.779 884.31 504.624 889.102C487.549 891.499 472.332 891.623 460.61 890.108C454.747 889.35 449.822 888.19 446.002 886.736C442.133 885.263 439.634 883.578 438.333 881.926C437.903 881.379 437.745 880.852 437.767 880.239C437.791 879.557 438.048 878.638 438.711 877.425C440.06 874.96 442.715 871.939 446.531 868.251C449.895 865.001 453.992 861.388 458.584 857.339C459.152 856.839 459.727 856.332 460.309 855.818C465.58 851.165 471.392 845.99 477.295 840.276C500.849 817.477 526.278 785.7 525.222 742.739C524.729 722.507 513.534 705.639 497.862 691.585C482.192 677.532 461.781 666.047 442.241 656.556C432.456 651.804 422.849 647.533 414.126 643.684C413.351 643.342 412.583 643.004 411.823 642.668C404.008 639.223 397.008 636.137 391.276 633.334C384.905 630.218 380.426 627.602 378.132 625.41C376.969 624.298 376.74 623.64 376.716 623.41C376.715 623.401 376.617 623.092 377.452 622.411Z" stroke="url(#paint1_linear_1204_167)" stroke-width="5"/>
<path d="M636.009 846.051L636.009 846.051C653.343 835 665.557 816.266 673.186 793.109C680.812 769.962 683.79 742.587 682.783 714.59C680.765 658.481 662.787 600.624 635.152 569.891L635.151 569.89C619.478 552.442 596.979 544.997 571.139 544.101C545.283 543.204 516.349 548.882 488.241 557.397C437.156 572.872 389.338 597.541 368.557 608.262C366.474 609.337 364.663 610.271 363.147 611.042C362.579 611.333 362.296 611.577 362.166 611.724C362.106 611.793 362.085 611.834 362.08 611.844L636.009 846.051ZM636.009 846.051C593.407 873.225 549.543 890.179 514.575 899.17C497.088 903.666 481.875 906.158 470.196 906.953C464.353 907.351 459.447 907.321 455.611 906.922C451.688 906.515 449.192 905.75 447.911 904.915L447.486 904.638L447.12 904.573C447.12 904.573 447.12 904.572 447.12 904.572C447.743 903.097 449.508 900.741 452.459 897.28C453.889 895.603 455.548 893.722 457.381 891.643C462.845 885.448 469.854 877.499 476.954 867.983C495.973 842.493 516.129 805.165 511.425 756.947L511.425 756.947C509.185 734.003 497.032 713.911 480.759 696.577C464.484 679.242 443.926 664.491 424.53 652.22C414.823 646.079 405.38 640.542 396.888 635.608C395.807 634.979 394.741 634.361 393.694 633.753C386.49 629.573 380.106 625.868 374.925 622.598C368.898 618.796 364.849 615.79 362.994 613.51C362.061 612.362 362.076 611.87 362.077 611.85L636.009 846.051ZM446.543 904.428C446.544 904.428 446.552 904.431 446.565 904.439C446.549 904.432 446.543 904.428 446.543 904.428Z" stroke="url(#paint2_linear_1204_167)" stroke-width="5"/>
<path d="M650.059 546.117L650.06 546.119C681.925 579.389 704.063 644.422 707.809 706.884C709.678 738.058 706.949 768.38 698.682 793.574C690.415 818.772 676.689 838.622 656.707 849.291C606.762 875.935 560.643 895.789 524.998 908.918C507.174 915.483 491.988 920.36 480.268 923.563C469.096 926.615 461.334 928.07 457.426 928.138C457.824 927.48 458.289 926.738 458.817 925.907C459.389 925.008 460.026 924.019 460.72 922.943C464.79 916.631 470.804 907.305 476.882 895.349C491.128 867.33 505.831 824.701 497.565 771.196L497.565 771.195C489.639 719.917 446.252 680.1 408.547 651.231C399.622 644.397 390.97 638.145 383.138 632.485C382.665 632.144 382.196 631.804 381.729 631.467C373.511 625.527 366.291 620.281 360.62 615.679C354.878 611.02 351.01 607.241 349.232 604.265C348.357 602.801 348.164 601.814 348.23 601.181C348.285 600.654 348.557 600.005 349.595 599.239C368.022 585.651 424.7 552.69 486.204 533.063C516.948 523.252 548.742 516.824 577.478 517.733C606.194 518.641 631.638 526.862 650.059 546.117Z" stroke="url(#paint3_linear_1204_167)" stroke-width="5"/>
<path d="M677.349 852.451L677.349 852.451C663.344 858.829 649.849 864.967 636.917 870.849C596.978 889.013 562.415 904.733 534.846 917.53C516.599 926.001 501.397 933.2 489.717 938.986C478.088 944.748 469.813 949.175 465.521 952.089L465.52 952.09C464.825 952.562 464.221 952.953 463.699 953.271C463.778 953.018 463.866 952.746 463.965 952.453C464.67 950.363 465.747 947.644 467.094 944.239C467.582 943.007 468.105 941.685 468.659 940.271C470.724 935.001 473.161 928.579 475.619 921.095C485.456 891.141 495.597 844.234 483.775 785.377C472.392 728.479 428.131 681.721 390.711 647.54C382.769 640.286 375.174 633.631 368.242 627.557C358.696 619.192 350.409 611.931 344.209 605.727C338.837 600.35 335.399 596.111 334.05 592.93C333.393 591.381 333.361 590.379 333.545 589.735C333.711 589.15 334.176 588.439 335.501 587.709C339.62 585.445 344.738 582.515 350.713 579.097C380.729 561.919 432.346 532.381 487.253 512.681C520.16 500.875 554.07 492.675 585.06 492.749C616.014 492.823 643.878 501.143 665.036 522.193L666.678 520.542L665.036 522.193C683.005 540.067 698.595 567.039 710.38 598.261C722.153 629.453 730.068 664.724 732.79 699.054C735.515 733.402 733.031 766.67 724.125 793.916C715.221 821.157 699.988 842.143 677.349 852.451Z" stroke="url(#paint4_linear_1204_167)" stroke-width="5"/>
<path d="M679.969 498.348L679.97 498.348C700.027 517.496 717.696 546.888 731.255 581.01C744.802 615.101 754.178 653.742 757.758 691.237C761.339 728.753 759.103 764.969 749.558 794.277C740.018 823.567 723.275 845.713 697.963 855.69C633.365 881.137 582.334 906.308 545.161 927.535C508.069 948.716 484.594 966.074 475.275 975.942L475.27 975.947C473.477 977.857 472.036 979.283 470.891 980.278C470.595 980.536 470.331 980.753 470.099 980.934C470.152 978.557 470.769 974.682 471.739 969.177C471.929 968.099 472.131 966.965 472.343 965.776C473.201 960.962 474.218 955.254 475.228 948.754C480.273 916.284 485.169 863.826 469.927 799.595L469.927 799.594C455.066 737.047 409.278 680.966 371.869 640.29C363.986 631.717 356.506 623.861 349.751 616.766C340.366 606.91 332.381 598.523 326.654 591.725C324.213 588.827 322.234 586.276 320.764 584.075C319.274 581.843 318.404 580.113 318.048 578.839C317.692 577.571 317.957 577.22 318.012 577.151C318.154 576.974 318.746 576.487 320.663 576.279C329.329 575.351 339.936 571.899 351.917 566.901C363.935 561.887 377.523 555.237 392.192 547.788C398.352 544.659 404.705 541.389 411.22 538.036C435.788 525.391 462.656 511.562 490.155 499.687C524.952 484.661 560.52 472.876 593.382 470.606C626.177 468.342 656.101 475.557 679.969 498.348ZM468.763 981.786C468.763 981.786 468.765 981.785 468.77 981.784C468.765 981.786 468.762 981.786 468.763 981.786Z" stroke="url(#paint5_linear_1204_167)" stroke-width="5"/>
<path d="M718.573 858.918L718.573 858.918C574.768 908.486 505.633 971.738 485.297 999.853C481.285 1005.4 478.605 1008.39 476.896 1009.52C476.705 1009.64 476.556 1009.73 476.444 1009.78C476.386 1009.67 476.315 1009.52 476.236 1009.31C475.546 1007.47 475.172 1003.82 475.042 998.056C474.94 993.546 474.984 988.017 475.037 981.504C475.05 979.88 475.064 978.196 475.076 976.451C475.315 941.536 474.874 883.597 456.152 813.946C437.807 745.702 391.239 682.598 354.261 636.594C348.268 629.139 342.541 622.149 337.226 615.661C326.057 602.03 316.706 590.617 310.531 581.771C308.266 578.527 306.472 575.688 305.191 573.259C303.893 570.797 303.208 568.916 303.012 567.555C302.823 566.24 303.127 565.791 303.335 565.589C303.658 565.274 304.537 564.798 306.669 564.72L306.67 564.72C316.767 564.35 328.725 560.989 341.998 555.756C355.303 550.509 370.119 543.303 385.974 535.096C396.177 529.814 406.807 524.121 417.763 518.254C440.951 505.835 465.6 492.634 490.757 480.896C527.776 463.623 565.557 449.691 600.762 446.272C635.888 442.862 668.292 449.923 694.911 474.474C717.058 494.924 736.805 526.752 752.137 563.779C767.455 600.774 778.293 642.783 782.729 683.436C787.168 724.114 785.18 763.268 774.996 794.631C764.821 825.964 746.568 849.272 718.573 858.918ZM476.164 1009.89C476.165 1009.89 476.169 1009.89 476.177 1009.88C476.168 1009.89 476.164 1009.89 476.164 1009.89ZM476.602 1010.03C476.604 1010.03 476.605 1010.03 476.605 1010.03C476.605 1010.03 476.604 1010.03 476.602 1010.03Z" stroke="url(#paint6_linear_1204_167)" stroke-width="5"/>
<path d="M495.379 1023.59L495.378 1023.59L292.721 550.564L292.669 553.063C292.669 553.063 292.669 553.063 292.67 553.063C304.171 553.302 317.464 550.079 332.022 544.643C346.609 539.196 362.649 531.457 379.691 522.505C393.541 515.23 408.005 507.184 422.923 498.885C444.901 486.659 467.867 473.883 491.312 462.214C530.565 442.678 570.571 426.571 608.128 421.979C645.595 417.398 680.477 424.287 709.833 450.597C734.055 472.325 755.874 506.574 772.977 546.499C790.066 586.391 802.369 631.767 807.669 675.583C812.972 719.427 811.241 761.532 800.425 794.965C789.622 828.354 769.863 852.844 739.179 862.173C580.648 910.363 517.636 986.993 495.379 1023.59Z" stroke="url(#paint7_linear_1204_167)" stroke-width="5"/>
<path d="M505.499 1047.28L505.499 1047.28C500.877 1055.92 497.08 1061.4 493.934 1064.31C492.373 1065.75 491.142 1066.4 490.216 1066.61C489.388 1066.79 488.642 1066.67 487.815 1066.14C486.908 1065.56 485.87 1064.47 484.742 1062.65C483.626 1060.84 482.508 1058.46 481.378 1055.49C479.118 1049.54 476.915 1041.5 474.579 1031.55C472.163 1021.26 469.622 1009.01 466.738 995.098C458.499 955.365 447.456 902.11 428.511 842.532C403.18 762.876 354.919 685.755 318.79 629.126C317.309 626.804 315.849 624.518 314.411 622.268C298.266 596.988 285.062 576.314 278.016 561.773C276.107 557.832 274.683 554.408 273.78 551.513C272.867 548.585 272.542 546.372 272.671 544.792C272.793 543.295 273.29 542.566 273.929 542.134C274.69 541.62 276.12 541.209 278.686 541.383L278.852 538.92L278.686 541.383C291.564 542.251 306.172 539.186 322.003 533.561C337.857 527.929 355.114 519.666 373.336 509.976C390.358 500.924 408.29 490.591 426.766 479.945C428.073 479.192 429.383 478.437 430.695 477.681C450.574 466.23 471.062 454.49 491.79 443.596C533.283 421.789 575.526 403.49 615.448 397.712C655.271 391.948 692.646 398.653 724.749 426.719C751.072 449.732 774.976 486.405 793.855 529.227C812.719 572.015 826.484 620.755 832.641 667.732C838.802 714.74 837.319 759.793 825.862 795.295C814.422 830.742 793.15 856.42 759.768 865.436C673.198 888.809 615.663 922.959 576.728 956.976C537.792 990.995 517.56 1024.79 505.499 1047.28Z" stroke="url(#paint8_linear_1204_167)" stroke-width="5"/>
<path d="M739.668 402.855L739.669 402.856C768.08 427.157 794.067 466.248 814.724 511.956C835.366 557.629 850.601 609.72 857.621 659.846C864.646 710.005 863.418 757.999 851.32 795.573C839.243 833.078 816.448 859.959 780.343 868.685C686.469 891.325 626.8 928.412 587.314 966.678C547.845 1004.93 528.677 1044.24 515.672 1070.98C510.718 1081.15 506.385 1087.84 502.554 1091.63C498.767 1095.38 495.982 1095.84 493.668 1094.93C490.935 1093.85 487.856 1090.54 484.473 1084.29C481.158 1078.16 477.812 1069.71 474.285 1059.16C468.558 1042.02 462.457 1019.67 455.271 993.352C453.607 987.255 451.884 980.945 450.095 974.437C440.591 939.878 429.224 899.847 414.709 856.862C386.722 773.986 339.584 692.301 304.178 630.947C303.107 629.091 302.047 627.254 300.999 625.436C283.088 594.382 268.646 569.057 261.691 551.825C259.959 547.536 258.721 543.817 258.007 540.685C257.286 537.521 257.141 535.13 257.441 533.421C257.725 531.799 258.374 530.925 259.257 530.407C260.253 529.823 261.95 529.455 264.739 529.753C278.972 531.272 294.88 528.383 311.976 522.583C329.088 516.778 347.555 507.999 366.956 497.574C386.361 487.147 406.778 475.031 427.776 462.532L430.006 461.204C450.319 449.112 471.169 436.7 492.249 425.088C535.989 400.993 580.479 380.481 622.774 373.497C664.959 366.531 704.828 373.037 739.668 402.855Z" stroke="url(#paint9_linear_1204_167)" stroke-width="5"/>
<path d="M754.58 378.971L754.58 378.972C785.092 404.564 813.16 446.085 835.59 494.694C858.003 543.268 874.697 598.727 882.573 652.016C890.454 705.341 889.474 756.285 876.737 795.928C864.026 835.489 839.719 863.559 800.916 871.955C699.748 893.838 637.951 933.846 597.92 976.349C561.164 1015.37 542.878 1056.4 529.308 1086.84C528.115 1089.52 526.959 1092.11 525.83 1094.62L525.829 1094.62C520.55 1106.33 515.692 1114.22 511.189 1118.88C506.725 1123.5 502.981 1124.61 499.642 1123.78C496.022 1122.87 492.003 1119.51 487.571 1113.11C483.198 1106.78 478.708 1097.92 473.99 1086.76C464.557 1064.45 454.409 1033.48 442.534 996.545C441.387 992.976 440.223 989.353 439.043 985.677C428.025 951.357 415.544 912.482 400.885 871.185C372.023 789.878 329.038 708.566 295.03 644.238C290.928 636.477 286.955 628.963 283.155 621.727C265.454 588.026 251.55 560.484 245.313 541.848C243.76 537.208 242.708 533.191 242.185 529.818C241.657 526.416 241.694 523.838 242.173 521.991C242.629 520.228 243.454 519.215 244.588 518.626C245.824 517.985 247.782 517.664 250.799 518.085C266.359 520.265 283.547 517.564 301.889 511.599C320.243 505.631 339.908 496.343 360.478 485.188C381.054 474.03 402.612 460.962 424.743 447.407C427.33 445.822 429.925 444.231 432.527 442.635C452.203 430.569 472.297 418.247 492.591 406.604C538.58 380.22 585.332 357.487 630.018 349.289C674.587 341.112 716.974 347.409 754.58 378.971Z" stroke="url(#paint10_linear_1204_167)" stroke-width="5"/>
<path d="M236.884 506.472L236.885 506.472C270.556 512.123 310.713 496.536 354.049 472.842C379.748 458.791 406.921 441.672 434.795 424.11C453.942 412.047 473.42 399.775 492.979 388.146C541.214 359.468 590.219 334.507 637.288 325.09C684.233 315.698 729.128 321.781 769.49 355.086C802.074 381.975 832.214 425.925 856.416 477.43C880.6 528.899 898.762 587.717 907.503 644.161C916.251 700.644 915.532 754.533 902.162 796.248C888.822 837.869 863.002 867.14 821.482 875.229C713.026 896.353 649.102 939.275 608.531 986.016C573.63 1026.22 556.114 1069.18 542.376 1102.87C540.176 1108.27 538.073 1113.43 536.01 1118.3C530.396 1131.55 525.013 1140.63 519.838 1146.17C514.701 1151.66 510.052 1153.39 505.697 1152.72C501.146 1152.02 496.153 1148.6 490.671 1142.01C485.235 1135.49 479.6 1126.2 473.693 1114.43C461.883 1090.91 449.216 1057.97 434.989 1018.71C429.612 1003.87 424.011 988.125 418.154 971.658C408.54 944.63 398.236 915.658 387.094 885.563C358.247 807.625 319.589 728.874 287.404 663.31C279.578 647.367 272.135 632.204 265.308 618.022C247.814 581.678 234.444 551.924 228.926 531.889C227.551 526.899 226.685 522.585 226.353 518.97C226.018 515.329 226.241 512.561 226.904 510.574C227.542 508.665 228.56 507.525 229.944 506.881C231.421 506.194 233.636 505.925 236.884 506.472Z" stroke="url(#paint11_linear_1204_167)" stroke-width="5"/>
<path d="M784.4 331.217L784.401 331.218C819.066 359.378 851.283 405.739 877.257 460.131C903.215 514.486 922.844 576.662 932.45 636.263C942.062 695.905 941.601 752.746 927.593 796.539C913.62 840.226 886.279 870.706 842.035 878.487C726.294 898.842 660.251 944.673 619.149 995.648C585.622 1037.23 568.774 1082.18 555.039 1118.83C551.983 1126.99 549.081 1134.73 546.184 1141.93C540.233 1156.71 534.323 1166.99 528.478 1173.4C522.67 1179.77 517.146 1182.11 511.794 1181.65C506.299 1181.17 500.312 1177.71 493.775 1170.95C487.272 1164.22 480.49 1154.5 473.395 1142.13C449.689 1100.8 423.301 1031.37 392.351 949.926C386.174 933.672 379.815 916.94 373.26 899.859C345.605 827.795 311.717 754.442 282.041 690.207C269.475 663.006 257.664 637.441 247.401 614.3C230.107 575.304 217.269 543.327 212.467 521.875C211.271 516.531 210.591 511.913 210.451 508.051C210.309 504.166 210.721 501.2 211.577 499.065C212.405 497.002 213.629 495.738 215.266 495.047C216.984 494.32 219.454 494.102 222.936 494.773C259.258 501.767 301.855 485.631 347.539 460.484C375.934 444.854 405.879 425.524 436.55 405.726C455.26 393.648 474.24 381.396 493.303 369.703C543.794 338.733 595.068 311.544 644.532 300.906C693.867 290.296 741.281 296.167 784.4 331.217Z" stroke="url(#paint12_linear_1204_167)" stroke-width="5"/>
<path d="M209.044 483.1L209.044 483.1C247.978 491.419 292.993 474.722 341.011 448.113C371.982 430.95 404.567 409.439 437.897 387.437C456.284 375.299 474.898 363.011 493.593 351.221C546.342 317.954 599.892 288.534 651.761 276.677C703.495 264.852 753.439 270.516 799.324 307.323L800.888 305.373L799.324 307.324C836.08 336.802 870.376 385.601 898.124 442.89C925.855 500.142 946.95 565.673 957.416 628.424C967.89 691.217 967.683 750.997 953.035 796.859C938.425 842.604 909.561 874.288 862.589 881.765L862.982 884.234L862.589 881.765C739.567 901.349 671.408 950.08 629.778 1005.27C597.293 1048.33 581.026 1095.33 567.382 1134.75C563.606 1145.66 560.031 1155.99 556.368 1165.5C550.075 1181.82 543.637 1193.29 537.118 1200.57C530.636 1207.81 524.251 1210.73 517.913 1210.5C511.462 1210.27 504.46 1206.75 496.854 1199.78C489.272 1192.84 481.336 1182.68 473.05 1169.69C440.309 1118.38 403.29 1024.89 361.249 918.716L359.456 914.189C338.001 859.994 314.043 804.873 291.188 752.919C287.473 744.473 283.787 736.111 280.146 727.851C261.38 685.28 243.803 645.406 229.506 610.576C212.411 568.93 200.108 534.733 196.026 511.865C193.965 500.318 194.12 492.24 196.284 487.558C197.309 485.341 198.749 483.962 200.638 483.23C202.6 482.47 205.324 482.305 209.044 483.1Z" stroke="url(#paint13_linear_1204_167)" stroke-width="5"/>
<path d="M566.499 1189.13L566.499 1189.13C559.864 1207 552.9 1219.65 545.71 1227.8C538.556 1235.91 531.324 1239.42 524.015 1239.44C516.614 1239.47 508.59 1235.92 499.911 1228.74C491.249 1221.58 482.16 1210.99 472.683 1197.38C434.712 1142.9 391.8 1042.07 345.602 928.534C325.606 879.392 304.262 829.403 283.74 781.34C256.547 717.652 230.797 657.345 211.54 606.866C194.643 562.571 182.873 526.155 179.512 501.871C177.816 489.622 178.353 481.031 180.927 476.063C182.155 473.693 183.815 472.205 185.953 471.44C188.159 470.652 191.133 470.541 195.092 471.464C236.636 481.149 284.053 463.946 334.385 435.92C367.915 417.25 403.113 393.549 439.073 369.333C457.137 357.169 475.393 344.875 493.728 333.024C548.718 297.48 604.536 265.825 658.821 252.71C712.967 239.628 765.47 245.011 814.181 283.45C852.98 314.294 889.335 365.551 918.854 425.742C948.357 485.898 970.932 554.776 982.28 620.662C993.636 686.593 993.709 749.292 978.442 797.208C963.216 844.994 932.843 877.871 883.143 885.042C752.856 903.833 682.585 955.461 640.42 1014.88C608.748 1059.5 592.982 1108.57 579.458 1150.66C575.058 1164.35 570.895 1177.31 566.499 1189.13Z" stroke="url(#paint14_linear_1204_167)" stroke-width="5"/>
<path d="M904.008 890.783L903.683 888.304C956.115 881.44 988.013 847.352 1003.88 797.5C1019.79 747.509 1019.46 681.864 1007.25 612.779C995.039 543.741 971.003 471.51 939.735 408.467C908.449 345.389 870.022 291.711 829.146 259.581C777.681 219.377 722.655 214.21 666.112 228.522C609.426 242.87 551.331 276.776 494.081 314.631C476.015 326.577 458.022 338.924 440.196 351.157C401.682 377.587 363.944 403.485 327.912 423.653C275.244 453.134 225.409 470.874 181.254 459.82M904.008 890.783L181.862 457.394M904.008 890.783L903.683 888.304C766.131 906.321 693.751 960.85 651.072 1024.49C629.781 1056.24 615.949 1090.16 605.066 1122.7C600.064 1137.65 595.677 1152.34 591.48 1166.39C591.113 1167.62 590.746 1168.85 590.381 1170.07C585.844 1185.25 581.492 1199.62 576.755 1212.81M904.008 890.783L579.108 1213.65M181.254 459.82L181.862 457.394M181.254 459.82C181.255 459.82 181.256 459.82 181.256 459.82L181.862 457.394M181.254 459.82C177.056 458.772 173.831 458.828 171.382 459.642C168.994 460.437 167.108 462.029 165.673 464.554C162.682 469.812 161.759 478.92 163.089 491.874C165.73 517.579 176.968 556.218 193.672 603.166C219.56 675.925 258.349 768.046 297.782 861.694C309.19 888.788 320.653 916.01 331.872 942.929C381.48 1061.98 429.696 1168.19 472.436 1225.13C483.105 1239.35 493.35 1250.37 503.097 1257.75C512.855 1265.14 521.905 1268.71 530.256 1268.42C538.528 1268.14 546.6 1264.05 554.425 1255.07C562.287 1246.04 569.779 1232.21 576.755 1212.81M181.862 457.394C118.128 441.481 205.217 648.307 295.497 862.711C306.901 889.794 318.356 916.999 329.565 943.89C428.721 1181.84 522.885 1369.99 579.108 1213.65M576.755 1212.81L579.108 1213.65M576.755 1212.81C576.756 1212.81 576.756 1212.81 576.756 1212.81L579.108 1213.65" stroke="url(#paint15_linear_1204_167)" stroke-width="5"/>
<path d="M167.357 448.135C214.097 460.516 266.342 442.236 321.346 411.311C359.821 389.678 400.035 361.619 441.035 333.012C458.688 320.694 476.487 308.275 494.356 296.223C553.874 256.081 614.254 219.944 673.347 204.364C732.292 188.823 789.839 193.757 844.045 235.671C887.019 269.092 927.536 325.192 960.606 391.161C993.659 457.094 1019.17 532.681 1032.24 604.874C1045.33 677.116 1045.91 745.711 1029.36 797.785C1021.09 823.796 1008.57 845.591 991.297 861.694C974.043 877.776 951.924 888.289 924.227 891.584C779.416 908.807 704.929 966.226 661.724 1034.07C640.175 1067.91 626.476 1104.23 615.662 1139.19C611.138 1153.82 607.111 1168.23 603.231 1182.12C602.475 1184.83 601.724 1187.51 600.976 1190.18C596.386 1206.54 591.907 1222.06 586.918 1236.33L589.278 1237.15L586.918 1236.33C579.599 1257.27 571.575 1272.3 563.033 1282.2C554.526 1292.06 545.604 1296.73 536.36 1297.29C527.047 1297.86 516.951 1294.28 506.093 1286.69C495.243 1279.1 483.824 1267.65 471.951 1252.82C424.389 1193.45 370.871 1081.85 318.058 957.215L318.055 957.207C264.322 831.606 208.482 698.576 175.541 599.464C159.052 549.857 148.383 508.983 146.501 481.845C145.553 468.181 146.884 458.548 150.311 452.996C151.965 450.316 154.086 448.621 156.73 447.799C159.43 446.96 162.912 446.96 167.357 448.135ZM167.357 448.135L167.997 445.719M167.357 448.135C167.357 448.135 167.357 448.136 167.357 448.136L167.997 445.719M167.997 445.719C92.2228 425.677 208.308 707.028 315.756 958.19L924.523 894.067C1150.06 867.234 1019.12 368.657 845.574 233.693C719.128 135.92 574.418 236.893 439.486 331.043C339.908 400.524 245.655 466.29 167.997 445.719Z" stroke="url(#paint16_linear_1204_167)" stroke-width="5"/>
<path d="M304.238 971.556L304.235 971.551C247.026 840.182 190.214 700.124 157.652 595.715C141.355 543.456 131.209 500.36 130.036 471.799C129.446 457.429 131.161 447.277 135.007 441.438C136.872 438.607 139.217 436.817 142.103 435.973C145.039 435.115 148.764 435.17 153.447 436.474C202.773 450.205 257.425 431.381 314.76 398.995C355.64 375.904 398.279 345.676 441.713 314.884C459.234 302.462 476.884 289.949 494.601 277.776C556.384 235.324 619.049 196.939 680.552 180.131C741.902 163.364 801.979 168.09 858.941 211.774C904.014 246.482 946.611 304.979 981.45 373.809C1016.27 442.599 1043.24 521.505 1057.17 596.829C1071.11 672.202 1071.94 743.736 1054.75 797.911C1046.16 824.971 1033.11 847.606 1015.04 864.26C996.993 880.891 973.821 891.672 944.772 894.864C792.669 911.026 716.075 971.336 672.359 1043.46C650.559 1079.42 637.003 1118.21 626.269 1155.64C622.133 1170.06 618.429 1184.23 614.84 1197.95C609.074 1220 603.606 1240.91 597.122 1259.93C581.711 1305.13 562.904 1324.54 542.571 1326.2C532.316 1327.04 521.191 1323.45 509.249 1315.64C497.311 1307.84 484.735 1295.95 471.67 1280.51C419.339 1218.67 360.515 1101.69 304.238 971.556Z" stroke="url(#paint17_linear_1204_167)" stroke-width="5"/>
<path d="M290.44 985.895L290.438 985.891C229.738 848.771 171.93 701.692 139.739 591.976C123.627 537.063 114.004 491.74 113.548 461.753C113.318 446.674 115.425 436 119.7 429.871C121.779 426.89 124.354 425.007 127.485 424.142C130.663 423.265 134.637 423.377 139.562 424.808C191.466 439.895 248.522 420.538 308.187 386.702C351.453 362.167 396.493 329.771 442.337 296.797C459.748 284.274 477.274 271.668 494.864 259.377C558.914 214.621 623.867 173.989 687.778 155.945C751.535 137.946 814.139 142.449 873.849 187.883C921.01 223.885 965.687 284.811 1002.3 356.536C1038.9 428.224 1067.34 510.493 1082.13 588.976C1096.94 667.509 1098.03 741.993 1080.2 798.241C1071.29 826.337 1057.69 849.786 1038.82 866.955C1019.97 884.101 995.733 895.102 965.308 898.128C805.959 913.561 727.272 976.737 683.038 1053.04C660.984 1091.08 647.561 1132.27 636.896 1172.13C633.119 1186.24 629.696 1200.15 626.363 1213.69C620.251 1238.53 614.442 1262.14 607.309 1283.52C591.217 1331.78 570.988 1352.9 548.778 1355.11C537.587 1356.23 525.434 1352.63 512.406 1344.61C499.38 1336.6 485.648 1324.26 471.392 1308.21C414.296 1243.9 350.174 1121.53 290.44 985.895Z" stroke="url(#paint18_linear_1204_167)" stroke-width="5"/>
<path d="M276.624 1000.18L276.623 1000.18C212.38 857.297 153.575 703.214 121.768 588.207C105.849 530.648 96.76 483.108 97.0314 451.701C97.1678 435.917 99.674 424.723 104.383 418.31C106.681 415.181 109.489 413.208 112.867 412.325C116.288 411.431 120.511 411.601 125.681 413.161L126.404 410.768L125.682 413.161C180.149 429.595 239.602 409.705 301.594 374.422C347.216 348.457 394.62 313.906 442.837 278.761C460.17 266.128 477.607 253.418 495.105 241.003C561.425 193.947 628.67 151.071 694.994 131.792C761.16 112.559 826.295 116.836 888.753 164.008C938.015 201.289 984.78 264.637 1023.18 339.257C1061.55 413.839 1091.46 499.471 1107.11 581.114C1122.78 662.809 1124.13 740.248 1105.65 798.574C1096.42 827.708 1082.28 851.975 1062.6 869.662C1042.95 887.327 1017.64 898.55 985.841 901.41C902.615 908.757 840.77 928.931 794.116 957.394C747.444 985.868 716.107 1022.56 693.79 1062.73C671.492 1102.86 658.207 1146.45 647.6 1188.71C644.174 1202.36 641.032 1215.85 637.96 1229.03C631.492 1256.79 625.334 1283.22 617.484 1307.07L617.481 1307.08C600.794 1358.42 579.194 1381.24 555.14 1384.01C543.026 1385.41 529.85 1381.81 515.735 1373.57C501.619 1365.34 486.724 1352.56 471.268 1335.88C409.37 1269.1 339.86 1141.3 276.624 1000.18Z" stroke="url(#paint19_linear_1204_167)" stroke-width="5"/>
<path d="M111.817 401.571L111.818 401.571C168.845 419.337 230.688 398.897 295.003 362.151C342.94 334.762 392.662 298.061 443.206 260.752C460.499 247.987 477.888 235.152 495.335 222.594C563.921 173.227 633.455 128.1 702.193 107.587C770.769 87.1227 838.437 91.1831 903.651 140.114C955.023 178.673 1003.88 244.447 1044.06 321.967C1084.22 399.447 1115.59 488.451 1132.11 573.26C1148.64 658.124 1150.24 738.523 1131.11 798.927C1121.56 829.099 1106.87 854.183 1086.39 872.385C1065.93 890.565 1039.55 902.006 1006.37 904.693C919.517 911.655 855.319 932.352 807.153 961.964C758.968 991.588 726.968 1030.05 704.39 1072.31C681.832 1114.53 668.682 1160.53 658.157 1205.23C654.991 1218.68 652.066 1231.99 649.197 1245.04C642.503 1275.5 636.115 1304.56 627.685 1330.73L627.684 1330.74C610.267 1385.12 587.221 1409.63 561.283 1412.95C548.228 1414.63 534.018 1411.03 518.812 1402.59C503.605 1394.14 487.551 1380.93 470.906 1363.64C404.25 1294.41 329.488 1161.26 262.839 1014.66L262.839 1014.65C195.144 865.957 135.334 704.836 103.881 584.517C88.1396 524.303 79.5642 474.538 80.5485 441.706C81.043 425.213 83.944 413.499 89.087 406.801C91.6027 403.525 94.6417 401.463 98.2648 400.563C101.928 399.654 106.399 399.881 111.817 401.571Z" stroke="url(#paint20_linear_1204_167)" stroke-width="5"/>
<path d="M637.889 1354.31L640.273 1355.07L637.889 1354.31C619.595 1412.21 594.864 1438.35 566.769 1441.92C552.627 1443.71 537.218 1439.87 520.744 1430.9C504.27 1421.93 486.879 1407.91 468.867 1389.59C396.746 1316.24 316.031 1175.42 245.686 1021.66C175.376 867.979 115.584 701.721 85.2029 577.749C69.9988 515.707 62.2211 464.491 64.0637 430.783C64.9888 413.857 68.321 401.842 73.8887 395C76.6181 391.646 79.8765 389.542 83.7264 388.652C87.6139 387.753 92.3037 388.047 97.9232 389.852C157.518 408.982 221.759 388.018 288.4 349.83C338.663 321.028 390.706 282.171 443.581 242.694C460.832 229.813 478.173 216.867 495.569 204.182C566.424 152.514 638.251 105.14 709.405 83.3928C780.395 61.6958 850.598 65.534 918.57 116.214C972.024 156.073 1022.96 224.278 1064.91 304.692C1106.84 385.067 1139.69 477.428 1157.07 565.391C1174.46 653.41 1176.32 736.755 1156.56 799.235C1146.69 830.444 1131.45 856.345 1110.17 875.066C1088.9 893.766 1061.46 905.431 1026.9 907.957L1027.08 910.292L1026.9 907.957C936.451 914.575 869.918 935.816 820.249 966.585C770.558 997.368 737.895 1037.59 715.047 1081.93C692.221 1126.22 679.193 1174.62 668.738 1221.74C665.8 1234.98 663.068 1248.11 660.382 1261.01C653.485 1294.15 646.891 1325.83 637.889 1354.31Z" stroke="url(#paint21_linear_1204_167)" stroke-width="5"/>
</g>
<defs>
<linearGradient id="paint0_linear_1204_167" x1="556.346" y1="870.388" x2="482.465" y2="594.66" gradientUnits="userSpaceOnUse">
<stop stop-color="#1BCA52"/>
<stop offset="0.5" stop-color="#0F72EC"/>
<stop offset="1" stop-color="#159F9D" stop-opacity="0"/>
</linearGradient>
<linearGradient id="paint1_linear_1204_167" x1="572.208" y1="875.391" x2="491.343" y2="573.597" gradientUnits="userSpaceOnUse">
<stop stop-color="#1BCA52"/>
<stop offset="0.5" stop-color="#0F72EC"/>
<stop offset="1" stop-color="#159F9D" stop-opacity="0"/>
</linearGradient>
<linearGradient id="paint2_linear_1204_167" x1="585.312" y1="882.823" x2="496.749" y2="552.302" gradientUnits="userSpaceOnUse">
<stop stop-color="#1BCA52"/>
<stop offset="0.5" stop-color="#0F72EC"/>
<stop offset="1" stop-color="#159F9D" stop-opacity="0"/>
</linearGradient>
<linearGradient id="paint3_linear_1204_167" x1="596.089" y1="895.12" x2="497.446" y2="526.981" gradientUnits="userSpaceOnUse">
<stop stop-color="#1BCA52"/>
<stop offset="0.5" stop-color="#0F72EC"/>
<stop offset="1" stop-color="#159F9D" stop-opacity="0"/>
</linearGradient>
<linearGradient id="paint4_linear_1204_167" x1="609.266" y1="917.359" x2="498.885" y2="505.413" gradientUnits="userSpaceOnUse">
<stop stop-color="#1BCA52"/>
<stop offset="0.5" stop-color="#0F72EC"/>
<stop offset="1" stop-color="#159F9D" stop-opacity="0"/>
</linearGradient>
<linearGradient id="paint5_linear_1204_167" x1="623.28" y1="942.971" x2="501.544" y2="488.646" gradientUnits="userSpaceOnUse">
<stop stop-color="#1BCA52"/>
<stop offset="0.5" stop-color="#0F72EC"/>
<stop offset="1" stop-color="#159F9D" stop-opacity="0"/>
</linearGradient>
<linearGradient id="paint6_linear_1204_167" x1="637.551" y1="969.233" x2="502.955" y2="466.916" gradientUnits="userSpaceOnUse">
<stop stop-color="#1BCA52"/>
<stop offset="0.5" stop-color="#0F72EC"/>
<stop offset="1" stop-color="#159F9D" stop-opacity="0"/>
</linearGradient>
<linearGradient id="paint7_linear_1204_167" x1="651.761" y1="995.622" x2="504.23" y2="445.03" gradientUnits="userSpaceOnUse">
<stop stop-color="#1BCA52"/>
<stop offset="0.5" stop-color="#0F72EC"/>
<stop offset="1" stop-color="#159F9D" stop-opacity="0"/>
</linearGradient>
<linearGradient id="paint8_linear_1204_167" x1="665.917" y1="1022.12" x2="505.385" y2="423.009" gradientUnits="userSpaceOnUse">
<stop stop-color="#1BCA52"/>
<stop offset="0.5" stop-color="#0F72EC"/>
<stop offset="1" stop-color="#159F9D" stop-opacity="0"/>
</linearGradient>
<linearGradient id="paint9_linear_1204_167" x1="679.993" y1="1048.74" x2="506.416" y2="400.943" gradientUnits="userSpaceOnUse">
<stop stop-color="#1BCA52"/>
<stop offset="0.5" stop-color="#0F72EC"/>
<stop offset="1" stop-color="#159F9D" stop-opacity="0"/>
</linearGradient>
<linearGradient id="paint10_linear_1204_167" x1="693.93" y1="1075.41" x2="507.274" y2="378.798" gradientUnits="userSpaceOnUse">
<stop stop-color="#1BCA52"/>
<stop offset="0.5" stop-color="#0F72EC"/>
<stop offset="1" stop-color="#159F9D" stop-opacity="0"/>
</linearGradient>
<linearGradient id="paint11_linear_1204_167" x1="707.743" y1="1102.19" x2="507.969" y2="356.629" gradientUnits="userSpaceOnUse">
<stop stop-color="#1BCA52"/>
<stop offset="0.5" stop-color="#0F72EC"/>
<stop offset="1" stop-color="#159F9D" stop-opacity="0"/>
</linearGradient>
<linearGradient id="paint12_linear_1204_167" x1="721.395" y1="1129.01" x2="508.492" y2="334.444" gradientUnits="userSpaceOnUse">
<stop stop-color="#1BCA52"/>
<stop offset="0.5" stop-color="#0F72EC"/>
<stop offset="1" stop-color="#159F9D" stop-opacity="0"/>
</linearGradient>
<linearGradient id="paint13_linear_1204_167" x1="734.884" y1="1155.81" x2="508.839" y2="312.2" gradientUnits="userSpaceOnUse">
<stop stop-color="#1BCA52"/>
<stop offset="0.5" stop-color="#0F72EC"/>
<stop offset="1" stop-color="#159F9D" stop-opacity="0"/>
</linearGradient>
<linearGradient id="paint14_linear_1204_167" x1="748.12" y1="1182.76" x2="508.956" y2="290.192" gradientUnits="userSpaceOnUse">
<stop stop-color="#1BCA52"/>
<stop offset="0.5" stop-color="#0F72EC"/>
<stop offset="1" stop-color="#159F9D" stop-opacity="0"/>
</linearGradient>
<linearGradient id="paint15_linear_1204_167" x1="761.314" y1="1209.81" x2="508.961" y2="268.015" gradientUnits="userSpaceOnUse">
<stop stop-color="#1BCA52"/>
<stop offset="0.5" stop-color="#0F72EC"/>
<stop offset="1" stop-color="#159F9D" stop-opacity="0"/>
</linearGradient>
<linearGradient id="paint16_linear_1204_167" x1="774.201" y1="1236.8" x2="508.689" y2="245.893" gradientUnits="userSpaceOnUse">
<stop stop-color="#1BCA52"/>
<stop offset="0.5" stop-color="#0F72EC"/>
<stop offset="1" stop-color="#159F9D" stop-opacity="0"/>
</linearGradient>
<linearGradient id="paint17_linear_1204_167" x1="787.007" y1="1263.88" x2="508.291" y2="223.696" gradientUnits="userSpaceOnUse">
<stop stop-color="#1BCA52"/>
<stop offset="0.5" stop-color="#0F72EC"/>
<stop offset="1" stop-color="#159F9D" stop-opacity="0"/>
</linearGradient>
<linearGradient id="paint18_linear_1204_167" x1="799.628" y1="1291.02" x2="507.713" y2="201.577" gradientUnits="userSpaceOnUse">
<stop stop-color="#1BCA52"/>
<stop offset="0.5" stop-color="#0F72EC"/>
<stop offset="1" stop-color="#159F9D" stop-opacity="0"/>
</linearGradient>
<linearGradient id="paint19_linear_1204_167" x1="812.092" y1="1318.24" x2="506.972" y2="179.512" gradientUnits="userSpaceOnUse">
<stop stop-color="#1BCA52"/>
<stop offset="0.5" stop-color="#0F72EC"/>
<stop offset="1" stop-color="#159F9D" stop-opacity="0"/>
</linearGradient>
<linearGradient id="paint20_linear_1204_167" x1="824.45" y1="1345.47" x2="506.109" y2="157.407" gradientUnits="userSpaceOnUse">
<stop stop-color="#1BCA52"/>
<stop offset="0.5" stop-color="#0F72EC"/>
<stop offset="1" stop-color="#159F9D" stop-opacity="0"/>
</linearGradient>
<linearGradient id="paint21_linear_1204_167" x1="836.644" y1="1372.69" x2="505.096" y2="135.34" gradientUnits="userSpaceOnUse">
<stop stop-color="#1BCA52"/>
<stop offset="0.5" stop-color="#0F72EC"/>
<stop offset="1" stop-color="#159F9D" stop-opacity="0"/>
</linearGradient>
</defs>
</svg>
